<svg width="197" height="166" viewBox="0 0 197 166" fill="none" xmlns="http://www.w3.org/2000/svg">
<path d="M190 83C190 123.898 150.205 159 98.5 159C46.7949 159 7 123.898 7 83C7 42.1016 46.7949 7 98.5 7C150.205 7 190 42.1016 190 83Z" stroke="white" stroke-opacity="0.37" stroke-width="14"/>
<path d="M94.1533 137.051C96.9428 139.727 101.374 139.636 104.051 136.847L147.671 91.3901C150.347 88.6006 150.256 84.1694 147.467 81.4927C144.677 78.816 140.246 78.9073 137.569 81.6968L98.7959 122.103L58.3901 83.3293C55.6006 80.6526 51.1694 80.7439 48.4927 83.5334C45.816 86.3228 45.9073 90.754 48.6968 93.4308L94.1533 137.051ZM90.0015 35.1443L92.0015 132.144L105.999 131.856L103.999 34.8557L90.0015 35.1443Z" fill="white" fill-opacity="0.46"/>
</svg>
